<mxfile host="app.diagrams.net" modified="2023-09-30T00:37:20.958Z" agent="Mozilla/5.0 (Windows NT 10.0; Win64; x64) AppleWebKit/537.36 (KHTML, like Gecko) Chrome/117.0.0.0 Safari/537.36 Edg/117.0.2045.43" etag="4XfFvh1ubMbni28DTIB0" version="22.0.0" type="device">
  <diagram id="C5RBs43oDa-KdzZeNtuy" name="Page-1">
    <mxGraphModel dx="1002" dy="543" grid="1" gridSize="10" guides="1" tooltips="1" connect="1" arrows="1" fold="1" page="1" pageScale="2" pageWidth="827" pageHeight="1169" math="0" shadow="0">
      <root>
        <mxCell id="WIyWlLk6GJQsqaUBKTNV-0" />
        <mxCell id="WIyWlLk6GJQsqaUBKTNV-1" parent="WIyWlLk6GJQsqaUBKTNV-0" />
        <mxCell id="1z6eioMeD4KNOvFRH6HD-8" style="edgeStyle=orthogonalEdgeStyle;rounded=0;orthogonalLoop=1;jettySize=auto;html=1;entryX=0.556;entryY=0.011;entryDx=0;entryDy=0;entryPerimeter=0;" parent="WIyWlLk6GJQsqaUBKTNV-1" source="WIyWlLk6GJQsqaUBKTNV-3" target="1z6eioMeD4KNOvFRH6HD-0" edge="1">
          <mxGeometry relative="1" as="geometry" />
        </mxCell>
        <mxCell id="WIyWlLk6GJQsqaUBKTNV-3" value="Start" style="rounded=1;whiteSpace=wrap;html=1;fontSize=12;glass=0;strokeWidth=1;shadow=0;" parent="WIyWlLk6GJQsqaUBKTNV-1" vertex="1">
          <mxGeometry x="310" y="0.5" width="120" height="40" as="geometry" />
        </mxCell>
        <mxCell id="1z6eioMeD4KNOvFRH6HD-7" style="edgeStyle=orthogonalEdgeStyle;rounded=0;orthogonalLoop=1;jettySize=auto;html=1;" parent="WIyWlLk6GJQsqaUBKTNV-1" source="1z6eioMeD4KNOvFRH6HD-0" target="1z6eioMeD4KNOvFRH6HD-1" edge="1">
          <mxGeometry relative="1" as="geometry" />
        </mxCell>
        <mxCell id="1z6eioMeD4KNOvFRH6HD-0" value="Ask user to input name" style="shape=parallelogram;perimeter=parallelogramPerimeter;whiteSpace=wrap;html=1;fixedSize=1;" parent="WIyWlLk6GJQsqaUBKTNV-1" vertex="1">
          <mxGeometry x="270" y="120" width="180" height="90" as="geometry" />
        </mxCell>
        <mxCell id="1z6eioMeD4KNOvFRH6HD-2" style="edgeStyle=orthogonalEdgeStyle;rounded=0;orthogonalLoop=1;jettySize=auto;html=1;entryX=0;entryY=0.5;entryDx=0;entryDy=0;" parent="WIyWlLk6GJQsqaUBKTNV-1" source="1z6eioMeD4KNOvFRH6HD-1" edge="1">
          <mxGeometry relative="1" as="geometry">
            <mxPoint x="595" y="400" as="targetPoint" />
            <Array as="points" />
          </mxGeometry>
        </mxCell>
        <mxCell id="1z6eioMeD4KNOvFRH6HD-5" style="edgeStyle=orthogonalEdgeStyle;rounded=0;orthogonalLoop=1;jettySize=auto;html=1;" parent="WIyWlLk6GJQsqaUBKTNV-1" source="1z6eioMeD4KNOvFRH6HD-1" edge="1">
          <mxGeometry relative="1" as="geometry">
            <mxPoint x="360" y="580" as="targetPoint" />
          </mxGeometry>
        </mxCell>
        <mxCell id="1z6eioMeD4KNOvFRH6HD-6" value="NO" style="edgeLabel;html=1;align=center;verticalAlign=middle;resizable=0;points=[];" parent="1z6eioMeD4KNOvFRH6HD-5" vertex="1" connectable="0">
          <mxGeometry x="0.0062" y="1" relative="1" as="geometry">
            <mxPoint x="-1" y="-46" as="offset" />
          </mxGeometry>
        </mxCell>
        <mxCell id="1z6eioMeD4KNOvFRH6HD-1" value="Is input = Enter?" style="rhombus;whiteSpace=wrap;html=1;" parent="WIyWlLk6GJQsqaUBKTNV-1" vertex="1">
          <mxGeometry x="275" y="270" width="170" height="120" as="geometry" />
        </mxCell>
        <mxCell id="1z6eioMeD4KNOvFRH6HD-3" value="YES" style="text;html=1;align=center;verticalAlign=middle;resizable=0;points=[];autosize=1;strokeColor=none;fillColor=none;" parent="WIyWlLk6GJQsqaUBKTNV-1" vertex="1">
          <mxGeometry x="480" y="330" width="50" height="30" as="geometry" />
        </mxCell>
        <mxCell id="1z6eioMeD4KNOvFRH6HD-9" value="Ask user to input price" style="shape=parallelogram;perimeter=parallelogramPerimeter;whiteSpace=wrap;html=1;fixedSize=1;" parent="WIyWlLk6GJQsqaUBKTNV-1" vertex="1">
          <mxGeometry x="260" y="500" width="185" height="90" as="geometry" />
        </mxCell>
        <mxCell id="1z6eioMeD4KNOvFRH6HD-40" style="edgeStyle=orthogonalEdgeStyle;rounded=0;orthogonalLoop=1;jettySize=auto;html=1;entryX=0.5;entryY=0;entryDx=0;entryDy=0;" parent="WIyWlLk6GJQsqaUBKTNV-1" source="1z6eioMeD4KNOvFRH6HD-10" target="9rIFoLn0j1q1FPhdyrLr-1" edge="1">
          <mxGeometry relative="1" as="geometry">
            <mxPoint x="355" y="1220" as="targetPoint" />
          </mxGeometry>
        </mxCell>
        <mxCell id="1z6eioMeD4KNOvFRH6HD-10" value="Ask user to input quantity" style="rhombus;whiteSpace=wrap;html=1;" parent="WIyWlLk6GJQsqaUBKTNV-1" vertex="1">
          <mxGeometry x="253.75" y="960" width="202.5" height="150" as="geometry" />
        </mxCell>
        <mxCell id="9rIFoLn0j1q1FPhdyrLr-28" style="edgeStyle=orthogonalEdgeStyle;rounded=0;orthogonalLoop=1;jettySize=auto;html=1;entryX=0.5;entryY=0;entryDx=0;entryDy=0;" parent="WIyWlLk6GJQsqaUBKTNV-1" source="1z6eioMeD4KNOvFRH6HD-14" target="1z6eioMeD4KNOvFRH6HD-32" edge="1">
          <mxGeometry relative="1" as="geometry" />
        </mxCell>
        <mxCell id="1z6eioMeD4KNOvFRH6HD-14" value="Calculate discounted price using&lt;br&gt;(quantity * ) - (discount% * ( quantity * price))" style="rounded=0;whiteSpace=wrap;html=1;" parent="WIyWlLk6GJQsqaUBKTNV-1" vertex="1">
          <mxGeometry x="850" y="1550" width="170" height="140" as="geometry" />
        </mxCell>
        <mxCell id="1z6eioMeD4KNOvFRH6HD-17" value="Determine discount% for items up to 20%. Add additional 5% for each item after the first and up to 5" style="rounded=0;whiteSpace=wrap;html=1;" parent="WIyWlLk6GJQsqaUBKTNV-1" vertex="1">
          <mxGeometry x="530" y="1570" width="180" height="110" as="geometry" />
        </mxCell>
        <mxCell id="1z6eioMeD4KNOvFRH6HD-20" value="NO" style="text;html=1;align=center;verticalAlign=middle;resizable=0;points=[];autosize=1;strokeColor=none;fillColor=none;" parent="WIyWlLk6GJQsqaUBKTNV-1" vertex="1">
          <mxGeometry x="445" y="820" width="40" height="30" as="geometry" />
        </mxCell>
        <mxCell id="9rIFoLn0j1q1FPhdyrLr-29" style="edgeStyle=orthogonalEdgeStyle;rounded=0;orthogonalLoop=1;jettySize=auto;html=1;" parent="WIyWlLk6GJQsqaUBKTNV-1" source="1z6eioMeD4KNOvFRH6HD-32" edge="1">
          <mxGeometry relative="1" as="geometry">
            <mxPoint x="750" y="1845" as="targetPoint" />
          </mxGeometry>
        </mxCell>
        <mxCell id="1z6eioMeD4KNOvFRH6HD-32" value="total saved = total saved + total saved&lt;br&gt;(discount item normal price - discounted price)" style="rounded=0;whiteSpace=wrap;html=1;" parent="WIyWlLk6GJQsqaUBKTNV-1" vertex="1">
          <mxGeometry x="875" y="1815" width="235" height="95" as="geometry" />
        </mxCell>
        <mxCell id="1z6eioMeD4KNOvFRH6HD-35" value="" style="edgeStyle=orthogonalEdgeStyle;rounded=0;orthogonalLoop=1;jettySize=auto;html=1;entryX=0.5;entryY=0;entryDx=0;entryDy=0;" parent="WIyWlLk6GJQsqaUBKTNV-1" source="1z6eioMeD4KNOvFRH6HD-9" target="1z6eioMeD4KNOvFRH6HD-34" edge="1">
          <mxGeometry relative="1" as="geometry">
            <mxPoint x="353" y="670" as="sourcePoint" />
            <mxPoint x="353" y="960" as="targetPoint" />
          </mxGeometry>
        </mxCell>
        <mxCell id="1z6eioMeD4KNOvFRH6HD-37" value="" style="edgeStyle=orthogonalEdgeStyle;rounded=0;orthogonalLoop=1;jettySize=auto;html=1;" parent="WIyWlLk6GJQsqaUBKTNV-1" source="1z6eioMeD4KNOvFRH6HD-34" target="1z6eioMeD4KNOvFRH6HD-10" edge="1">
          <mxGeometry relative="1" as="geometry" />
        </mxCell>
        <mxCell id="1z6eioMeD4KNOvFRH6HD-41" style="edgeStyle=orthogonalEdgeStyle;rounded=0;orthogonalLoop=1;jettySize=auto;html=1;" parent="WIyWlLk6GJQsqaUBKTNV-1" source="1z6eioMeD4KNOvFRH6HD-34" edge="1">
          <mxGeometry relative="1" as="geometry">
            <mxPoint x="550" y="810" as="targetPoint" />
          </mxGeometry>
        </mxCell>
        <mxCell id="1z6eioMeD4KNOvFRH6HD-34" value="is input a number" style="rhombus;whiteSpace=wrap;html=1;" parent="WIyWlLk6GJQsqaUBKTNV-1" vertex="1">
          <mxGeometry x="277.5" y="770" width="150" height="100" as="geometry" />
        </mxCell>
        <mxCell id="1z6eioMeD4KNOvFRH6HD-38" value="YES" style="text;html=1;align=center;verticalAlign=middle;resizable=0;points=[];autosize=1;strokeColor=none;fillColor=none;" parent="WIyWlLk6GJQsqaUBKTNV-1" vertex="1">
          <mxGeometry x="345" y="900" width="50" height="30" as="geometry" />
        </mxCell>
        <mxCell id="9rIFoLn0j1q1FPhdyrLr-31" style="edgeStyle=orthogonalEdgeStyle;rounded=0;orthogonalLoop=1;jettySize=auto;html=1;entryX=1;entryY=0.5;entryDx=0;entryDy=0;" parent="WIyWlLk6GJQsqaUBKTNV-1" source="1z6eioMeD4KNOvFRH6HD-42" target="1z6eioMeD4KNOvFRH6HD-9" edge="1">
          <mxGeometry relative="1" as="geometry">
            <Array as="points">
              <mxPoint x="560" y="545" />
            </Array>
          </mxGeometry>
        </mxCell>
        <mxCell id="1z6eioMeD4KNOvFRH6HD-42" value="Print error message and ask for input&amp;nbsp;" style="rounded=0;whiteSpace=wrap;html=1;" parent="WIyWlLk6GJQsqaUBKTNV-1" vertex="1">
          <mxGeometry x="505" y="780" width="120" height="60" as="geometry" />
        </mxCell>
        <mxCell id="1z6eioMeD4KNOvFRH6HD-64" style="edgeStyle=orthogonalEdgeStyle;rounded=0;orthogonalLoop=1;jettySize=auto;html=1;entryX=0;entryY=0.5;entryDx=0;entryDy=0;" parent="WIyWlLk6GJQsqaUBKTNV-1" source="1z6eioMeD4KNOvFRH6HD-60" target="1z6eioMeD4KNOvFRH6HD-62" edge="1">
          <mxGeometry relative="1" as="geometry" />
        </mxCell>
        <mxCell id="1z6eioMeD4KNOvFRH6HD-66" style="edgeStyle=orthogonalEdgeStyle;rounded=0;orthogonalLoop=1;jettySize=auto;html=1;" parent="WIyWlLk6GJQsqaUBKTNV-1" source="1z6eioMeD4KNOvFRH6HD-60" edge="1">
          <mxGeometry relative="1" as="geometry">
            <mxPoint x="830" y="390" as="targetPoint" />
            <Array as="points">
              <mxPoint x="830" y="390" />
            </Array>
          </mxGeometry>
        </mxCell>
        <mxCell id="1z6eioMeD4KNOvFRH6HD-60" value="Does the cart have items" style="rhombus;whiteSpace=wrap;html=1;" parent="WIyWlLk6GJQsqaUBKTNV-1" vertex="1">
          <mxGeometry x="570" y="330" width="190" height="140" as="geometry" />
        </mxCell>
        <mxCell id="1z6eioMeD4KNOvFRH6HD-62" value="STOP" style="rounded=1;whiteSpace=wrap;html=1;" parent="WIyWlLk6GJQsqaUBKTNV-1" vertex="1">
          <mxGeometry x="710" y="700" width="130" height="80" as="geometry" />
        </mxCell>
        <mxCell id="1z6eioMeD4KNOvFRH6HD-65" value="NO" style="text;html=1;align=center;verticalAlign=middle;resizable=0;points=[];autosize=1;strokeColor=none;fillColor=none;" parent="WIyWlLk6GJQsqaUBKTNV-1" vertex="1">
          <mxGeometry x="660" y="550" width="40" height="30" as="geometry" />
        </mxCell>
        <mxCell id="1z6eioMeD4KNOvFRH6HD-67" value="YES" style="text;html=1;align=center;verticalAlign=middle;resizable=0;points=[];autosize=1;strokeColor=none;fillColor=none;" parent="WIyWlLk6GJQsqaUBKTNV-1" vertex="1">
          <mxGeometry x="760" y="370" width="50" height="30" as="geometry" />
        </mxCell>
        <mxCell id="1z6eioMeD4KNOvFRH6HD-69" style="edgeStyle=orthogonalEdgeStyle;rounded=0;orthogonalLoop=1;jettySize=auto;html=1;entryX=1;entryY=0.5;entryDx=0;entryDy=0;exitX=0.5;exitY=1;exitDx=0;exitDy=0;" parent="WIyWlLk6GJQsqaUBKTNV-1" source="9rIFoLn0j1q1FPhdyrLr-0" target="1z6eioMeD4KNOvFRH6HD-62" edge="1">
          <mxGeometry relative="1" as="geometry">
            <mxPoint x="890" y="420" as="sourcePoint" />
          </mxGeometry>
        </mxCell>
        <mxCell id="9rIFoLn0j1q1FPhdyrLr-0" value="Print receipt&amp;nbsp;" style="shape=parallelogram;perimeter=parallelogramPerimeter;whiteSpace=wrap;html=1;fixedSize=1;" parent="WIyWlLk6GJQsqaUBKTNV-1" vertex="1">
          <mxGeometry x="820" y="360" width="120" height="60" as="geometry" />
        </mxCell>
        <mxCell id="9rIFoLn0j1q1FPhdyrLr-8" style="edgeStyle=orthogonalEdgeStyle;rounded=0;orthogonalLoop=1;jettySize=auto;html=1;entryX=0;entryY=0.5;entryDx=0;entryDy=0;" parent="WIyWlLk6GJQsqaUBKTNV-1" source="9rIFoLn0j1q1FPhdyrLr-1" target="9rIFoLn0j1q1FPhdyrLr-2" edge="1">
          <mxGeometry relative="1" as="geometry" />
        </mxCell>
        <mxCell id="9rIFoLn0j1q1FPhdyrLr-1" value="is input a number" style="rhombus;whiteSpace=wrap;html=1;" parent="WIyWlLk6GJQsqaUBKTNV-1" vertex="1">
          <mxGeometry x="280" y="1230" width="150" height="100" as="geometry" />
        </mxCell>
        <mxCell id="9rIFoLn0j1q1FPhdyrLr-32" style="edgeStyle=orthogonalEdgeStyle;rounded=0;orthogonalLoop=1;jettySize=auto;html=1;entryX=1;entryY=0.5;entryDx=0;entryDy=0;" parent="WIyWlLk6GJQsqaUBKTNV-1" source="9rIFoLn0j1q1FPhdyrLr-2" target="1z6eioMeD4KNOvFRH6HD-10" edge="1">
          <mxGeometry relative="1" as="geometry">
            <Array as="points">
              <mxPoint x="570" y="1035" />
            </Array>
          </mxGeometry>
        </mxCell>
        <mxCell id="9rIFoLn0j1q1FPhdyrLr-2" value="Print error message and ask for input&amp;nbsp;" style="rounded=0;whiteSpace=wrap;html=1;" parent="WIyWlLk6GJQsqaUBKTNV-1" vertex="1">
          <mxGeometry x="500" y="1250" width="120" height="60" as="geometry" />
        </mxCell>
        <mxCell id="9rIFoLn0j1q1FPhdyrLr-9" value="NO" style="text;html=1;align=center;verticalAlign=middle;resizable=0;points=[];autosize=1;strokeColor=none;fillColor=none;" parent="WIyWlLk6GJQsqaUBKTNV-1" vertex="1">
          <mxGeometry x="440" y="1278" width="40" height="30" as="geometry" />
        </mxCell>
        <mxCell id="9rIFoLn0j1q1FPhdyrLr-17" style="edgeStyle=orthogonalEdgeStyle;rounded=0;orthogonalLoop=1;jettySize=auto;html=1;entryX=0.5;entryY=0;entryDx=0;entryDy=0;" parent="WIyWlLk6GJQsqaUBKTNV-1" source="9rIFoLn0j1q1FPhdyrLr-13" target="9rIFoLn0j1q1FPhdyrLr-15" edge="1">
          <mxGeometry relative="1" as="geometry" />
        </mxCell>
        <mxCell id="9rIFoLn0j1q1FPhdyrLr-13" value="convert price and quantity to float and integer respectively" style="rounded=0;whiteSpace=wrap;html=1;" parent="WIyWlLk6GJQsqaUBKTNV-1" vertex="1">
          <mxGeometry x="295" y="1410" width="130" height="60" as="geometry" />
        </mxCell>
        <mxCell id="9rIFoLn0j1q1FPhdyrLr-14" style="edgeStyle=orthogonalEdgeStyle;rounded=0;orthogonalLoop=1;jettySize=auto;html=1;entryX=0.458;entryY=-0.017;entryDx=0;entryDy=0;entryPerimeter=0;" parent="WIyWlLk6GJQsqaUBKTNV-1" source="9rIFoLn0j1q1FPhdyrLr-1" target="9rIFoLn0j1q1FPhdyrLr-13" edge="1">
          <mxGeometry relative="1" as="geometry" />
        </mxCell>
        <mxCell id="9rIFoLn0j1q1FPhdyrLr-19" style="edgeStyle=orthogonalEdgeStyle;rounded=0;orthogonalLoop=1;jettySize=auto;html=1;" parent="WIyWlLk6GJQsqaUBKTNV-1" source="9rIFoLn0j1q1FPhdyrLr-15" edge="1">
          <mxGeometry relative="1" as="geometry">
            <mxPoint x="530" y="1625" as="targetPoint" />
          </mxGeometry>
        </mxCell>
        <mxCell id="9rIFoLn0j1q1FPhdyrLr-22" style="edgeStyle=orthogonalEdgeStyle;rounded=0;orthogonalLoop=1;jettySize=auto;html=1;" parent="WIyWlLk6GJQsqaUBKTNV-1" source="9rIFoLn0j1q1FPhdyrLr-15" edge="1">
          <mxGeometry relative="1" as="geometry">
            <mxPoint x="360" y="1800" as="targetPoint" />
          </mxGeometry>
        </mxCell>
        <mxCell id="9rIFoLn0j1q1FPhdyrLr-15" value="Is name in discount list&lt;br&gt;and 1&amp;lt;quantity&amp;lt;6" style="rhombus;whiteSpace=wrap;html=1;" parent="WIyWlLk6GJQsqaUBKTNV-1" vertex="1">
          <mxGeometry x="272.5" y="1540" width="175" height="170" as="geometry" />
        </mxCell>
        <mxCell id="9rIFoLn0j1q1FPhdyrLr-18" value="YES" style="text;html=1;align=center;verticalAlign=middle;resizable=0;points=[];autosize=1;strokeColor=none;fillColor=none;" parent="WIyWlLk6GJQsqaUBKTNV-1" vertex="1">
          <mxGeometry x="345" y="1348" width="50" height="30" as="geometry" />
        </mxCell>
        <mxCell id="9rIFoLn0j1q1FPhdyrLr-20" value="YES" style="text;html=1;align=center;verticalAlign=middle;resizable=0;points=[];autosize=1;strokeColor=none;fillColor=none;" parent="WIyWlLk6GJQsqaUBKTNV-1" vertex="1">
          <mxGeometry x="455" y="1600" width="50" height="30" as="geometry" />
        </mxCell>
        <mxCell id="9rIFoLn0j1q1FPhdyrLr-21" style="edgeStyle=orthogonalEdgeStyle;rounded=0;orthogonalLoop=1;jettySize=auto;html=1;entryX=-0.033;entryY=0.487;entryDx=0;entryDy=0;entryPerimeter=0;" parent="WIyWlLk6GJQsqaUBKTNV-1" source="1z6eioMeD4KNOvFRH6HD-17" target="1z6eioMeD4KNOvFRH6HD-14" edge="1">
          <mxGeometry relative="1" as="geometry" />
        </mxCell>
        <mxCell id="9rIFoLn0j1q1FPhdyrLr-23" value="NO" style="text;html=1;align=center;verticalAlign=middle;resizable=0;points=[];autosize=1;strokeColor=none;fillColor=none;" parent="WIyWlLk6GJQsqaUBKTNV-1" vertex="1">
          <mxGeometry x="360" y="1730" width="40" height="30" as="geometry" />
        </mxCell>
        <mxCell id="9rIFoLn0j1q1FPhdyrLr-26" style="edgeStyle=orthogonalEdgeStyle;rounded=0;orthogonalLoop=1;jettySize=auto;html=1;entryX=0;entryY=0.25;entryDx=0;entryDy=0;" parent="WIyWlLk6GJQsqaUBKTNV-1" source="9rIFoLn0j1q1FPhdyrLr-24" target="9rIFoLn0j1q1FPhdyrLr-25" edge="1">
          <mxGeometry relative="1" as="geometry">
            <Array as="points">
              <mxPoint x="625" y="1845" />
            </Array>
          </mxGeometry>
        </mxCell>
        <mxCell id="9rIFoLn0j1q1FPhdyrLr-24" value="Calculate regular price" style="rounded=0;whiteSpace=wrap;html=1;" parent="WIyWlLk6GJQsqaUBKTNV-1" vertex="1">
          <mxGeometry x="280" y="1800" width="180" height="90" as="geometry" />
        </mxCell>
        <mxCell id="9rIFoLn0j1q1FPhdyrLr-30" style="edgeStyle=orthogonalEdgeStyle;rounded=0;orthogonalLoop=1;jettySize=auto;html=1;entryX=0;entryY=0.5;entryDx=0;entryDy=0;exitX=0.5;exitY=1;exitDx=0;exitDy=0;" parent="WIyWlLk6GJQsqaUBKTNV-1" source="9rIFoLn0j1q1FPhdyrLr-25" target="1z6eioMeD4KNOvFRH6HD-0" edge="1">
          <mxGeometry relative="1" as="geometry">
            <Array as="points">
              <mxPoint x="685" y="1960" />
              <mxPoint x="160" y="1960" />
              <mxPoint x="160" y="165" />
            </Array>
          </mxGeometry>
        </mxCell>
        <mxCell id="9rIFoLn0j1q1FPhdyrLr-25" value="Store name, price, quantity and total price" style="rounded=0;whiteSpace=wrap;html=1;" parent="WIyWlLk6GJQsqaUBKTNV-1" vertex="1">
          <mxGeometry x="625" y="1815" width="120" height="60" as="geometry" />
        </mxCell>
      </root>
    </mxGraphModel>
  </diagram>
</mxfile>
